<?xml version="1.0" encoding="UTF-8" standalone="no"?>
<svg
   xmlns:dc="http://purl.org/dc/elements/1.1/"
   xmlns:cc="http://creativecommons.org/ns#"
   xmlns:rdf="http://www.w3.org/1999/02/22-rdf-syntax-ns#"
   xmlns:svg="http://www.w3.org/2000/svg"
   xmlns="http://www.w3.org/2000/svg"
   xmlns:sodipodi="http://sodipodi.sourceforge.net/DTD/sodipodi-0.dtd"
   xmlns:inkscape="http://www.inkscape.org/namespaces/inkscape"
   sodipodi:docname="car.svg"
   inkscape:version="1.0 (6e3e5246a0, 2020-05-07)"
   id="svg1932"
   version="1.1"
   viewBox="0 0 32 18"
   height="18mm"
   width="32mm">
  <defs
     id="defs1926" />
  <sodipodi:namedview
     inkscape:window-maximized="0"
     inkscape:window-y="27"
     inkscape:window-x="122"
     inkscape:window-height="1016"
     inkscape:window-width="1428"
     showgrid="false"
     inkscape:document-rotation="0"
     inkscape:current-layer="layer1"
     inkscape:document-units="mm"
     inkscape:cy="70.788754"
     inkscape:cx="55.598991"
     inkscape:zoom="3.9067057"
     inkscape:pageshadow="2"
     inkscape:pageopacity="0.0"
     borderopacity="1.0"
     bordercolor="#666666"
     pagecolor="#ffffff"
     id="base" />
  <metadata
     id="metadata1929">
    <rdf:RDF>
      <cc:Work
         rdf:about="">
        <dc:format>image/svg+xml</dc:format>
        <dc:type
           rdf:resource="http://purl.org/dc/dcmitype/StillImage" />
        <dc:title></dc:title>
      </cc:Work>
    </rdf:RDF>
  </metadata>
  <g
     id="layer1"
     inkscape:groupmode="layer"
     inkscape:label="Layer 1">
    <g
       transform="translate(-112.18629,-67.250563)"
       style="stroke-width:1;stroke-miterlimit:4;stroke-dasharray:none"
       id="g3176">
      <g
         style="stroke-width:0.956529;stroke-miterlimit:4;stroke-dasharray:none"
         id="g1697"
         transform="matrix(-1.045447,0,0,1.045447,436.01874,-1622.2142)">
        <g
           style="stroke-width:5.27177;stroke-miterlimit:4;stroke-dasharray:none"
           transform="matrix(0.1814435,0,0,0.1814435,144.02782,1497.7437)"
           id="g1007" />
        <g
           style="stroke-width:0.956529;stroke-miterlimit:4;stroke-dasharray:none"
           id="g1735"
           transform="translate(20.692042)">
          <rect
             style="fill:#070c0d;fill-opacity:1;stroke-width:5.27177;stroke-miterlimit:4;stroke-dasharray:none"
             x="-796.32672"
             y="-734.7218"
             width="19.452641"
             height="3.0877199"
             transform="matrix(-0.18144347,-9.6998666e-5,9.6998666e-5,-0.18144347,144.02783,1497.7437)"
             fill="#3f3d56"
             id="rect122" />
          <path
             d="m 635.83677,732.74617 4.01354,0.92846 152.53335,0.0815 1.37161,-3.19572 a 32.257,32.257 0 0 0 2.37148,-17.44193 c -0.65694,-4.4136 -2.30315,-8.79914 -6.04213,-10.70394 l -6.76889,-45.08441 -84.38886,-0.151 -32.64974,26.33408 c 0,0 -15.40137,-0.27686 -23.7685,10.13972 a 24.44959,24.44959 0 0 0 -5.1143,13.46591 l -0.33022,5.41878 z"
             fill="#6c63ff"
             id="path124"
             style="fill:#ecf0f1;fill-opacity:1;stroke-width:5.27177;stroke-miterlimit:4;stroke-dasharray:none"
             transform="matrix(0.1814435,0,0,0.1814435,144.02783,1497.7437)" />
          <polygon
             style="stroke-width:5.27177;stroke-miterlimit:4;stroke-dasharray:none"
             points="717.442,397.594 717.449,388.322 711.201,388.322 705.639,388.316 695.787,388.309 690.225,388.309 678.851,388.302 656.92,406.511 702.483,406.53 708.045,406.53 717.435,406.537 717.435,405.852 "
             fill="#ffffff"
             id="polygon134"
             transform="matrix(0.1814435,0,0,0.1814435,148.07937,1547.4455)" />
          <polygon
             style="stroke-width:5.27177;stroke-miterlimit:4;stroke-dasharray:none"
             points="745.416,388.342 739.854,388.335 724.856,388.329 724.849,406.544 748.929,406.557 748.935,401.832 748.935,393.574 748.942,388.342 "
             fill="#ffffff"
             id="polygon136"
             transform="matrix(0.1814435,0,0,0.1814435,148.07937,1547.4455)" />
          <rect
             style="fill:#070c0d;fill-opacity:1;stroke-width:5.27177;stroke-miterlimit:4;stroke-dasharray:none"
             x="-740.13019"
             y="-699.52185"
             width="3.0877199"
             height="5.8666701"
             transform="matrix(-0.18144347,-9.6998666e-5,9.6998666e-5,-0.18144347,144.02783,1497.7437)"
             fill="#3f3d56"
             id="rect138" />
          <rect
             style="fill:#070c0d;fill-opacity:1;stroke-width:5.27177;stroke-miterlimit:4;stroke-dasharray:none"
             x="685.3183"
             y="-691.96167"
             width="3.0877199"
             height="5.8666701"
             transform="matrix(-9.6998666e-5,0.18144347,-0.18144347,-9.6998666e-5,144.02783,1497.7437)"
             fill="#3f3d56"
             id="rect140" />
          <path
             style="fill:#070c0d;fill-opacity:1;stroke-width:5.27177;stroke-miterlimit:4;stroke-dasharray:none"
             d="m 689.43318,687.04555 -0.33966,-1.8e-4 a 6.45333,6.45333 0 0 1 -6.44988,-6.45678 v 0 a 6.45333,6.45333 0 0 1 6.45678,-6.44988 l 0.33966,1.8e-4 z"
             fill="#3f3d56"
             id="path142"
             transform="matrix(0.1814435,0,0,0.1814435,144.02783,1497.7437)" />
          <path
             style="fill:#070c0d;fill-opacity:1;stroke-width:5.27177;stroke-miterlimit:4;stroke-dasharray:none"
             d="m 637.06411,712.53766 a 9.97473,9.97473 0 0 0 5.44452,-18.88469 24.44959,24.44959 0 0 0 -5.1143,13.46591 z"
             fill="#3f3d56"
             id="path144"
             transform="matrix(0.1814435,0,0,0.1814435,144.02783,1497.7437)" />
          <polygon
             style="stroke-width:5.27177;stroke-miterlimit:4;stroke-dasharray:none"
             points="717.435,405.852 717.442,397.594 711.201,388.322 705.639,388.316 "
             fill="#f2f2f2"
             id="polygon146"
             transform="matrix(0.1814435,0,0,0.1814435,148.07937,1547.4455)" />
          <polygon
             style="stroke-width:5.27177;stroke-miterlimit:4;stroke-dasharray:none"
             points="748.935,401.832 748.935,393.574 745.416,388.342 739.854,388.335 "
             fill="#f2f2f2"
             id="polygon148"
             transform="matrix(0.1814435,0,0,0.1814435,148.07937,1547.4455)" />
          <polygon
             style="stroke-width:5.27177;stroke-miterlimit:4;stroke-dasharray:none"
             points="702.483,406.53 708.045,406.53 695.787,388.309 690.225,388.309 "
             fill="#f2f2f2"
             id="polygon150"
             transform="matrix(0.1814435,0,0,0.1814435,148.07937,1547.4455)" />
        </g>
      </g>
    </g>
  </g>
</svg>
