<?xml version="1.0" encoding="UTF-8" standalone="no"?>
<svg
   xmlns:dc="http://purl.org/dc/elements/1.1/"
   xmlns:cc="http://creativecommons.org/ns#"
   xmlns:rdf="http://www.w3.org/1999/02/22-rdf-syntax-ns#"
   xmlns:svg="http://www.w3.org/2000/svg"
   xmlns="http://www.w3.org/2000/svg"
   xmlns:sodipodi="http://sodipodi.sourceforge.net/DTD/sodipodi-0.dtd"
   xmlns:inkscape="http://www.inkscape.org/namespaces/inkscape"
   sodipodi:docname="github.svg"
   inkscape:version="1.0 (6e3e5246a0, 2020-05-07)"
   id="svg3479"
   version="1.1"
   viewBox="0 0 16 16"
   height="16mm"
   width="16mm">
  <defs
     id="defs3473" />
  <sodipodi:namedview
     inkscape:window-maximized="0"
     inkscape:window-y="27"
     inkscape:window-x="122"
     inkscape:window-height="1016"
     inkscape:window-width="1428"
     showgrid="false"
     inkscape:document-rotation="0"
     inkscape:current-layer="layer1"
     inkscape:document-units="mm"
     inkscape:cy="560"
     inkscape:cx="400"
     inkscape:zoom="0.35"
     inkscape:pageshadow="2"
     inkscape:pageopacity="0.0"
     borderopacity="1.0"
     bordercolor="#666666"
     pagecolor="#ffffff"
     id="base" />
  <metadata
     id="metadata3476">
    <rdf:RDF>
      <cc:Work
         rdf:about="">
        <dc:format>image/svg+xml</dc:format>
        <dc:type
           rdf:resource="http://purl.org/dc/dcmitype/StillImage" />
        <dc:title></dc:title>
      </cc:Work>
    </rdf:RDF>
  </metadata>
  <g
     id="layer1"
     inkscape:groupmode="layer"
     inkscape:label="Layer 1">
    <path
       style="fill:#ecf0f1;fill-opacity:1;stroke-width:0.664363"
       d="m 7.9999415,0.35967308 c -4.404747,0 -7.972394,3.50785012 -7.972394,7.83421652 0,3.4619964 2.284091,6.3978464 5.451128,7.4329204 0.398621,0.07375 0.544776,-0.168761 0.544776,-0.376685 0,-0.186042 -0.0068,-0.678991 -0.0099,-1.332053 -2.217651,0.472346 -2.685365,-1.051051 -2.685365,-1.051051 -0.362749,-0.904196 -0.88693,-1.14602 -0.88693,-1.14602 -0.72217,-0.485642 0.05582,-0.475691 0.05582,-0.475691 0.800565,0.05446 1.221107,0.807217 1.221107,0.807217 0.71087,1.197869 1.866208,0.851706 2.321959,0.651729 0.07171,-0.506915 0.27704,-0.851707 0.504919,-1.047699 -1.77058,-0.195993 -3.631469,-0.869665 -3.631469,-3.8712701 0,-0.8550209 0.308934,-1.553944 0.820498,-2.1020646 -0.08969,-0.197966 -0.358758,-0.9945388 0.06976,-2.0734618 0,0 0.667691,-0.2099588 2.192414,0.8032017 0.637786,-0.174049 1.315443,-0.260437 1.993093,-0.2643917 0.677658,0.00377 1.355307,0.090343 1.9931,0.2643917 1.5147575,-1.0131605 2.1824485,-0.8032017 2.1824485,-0.8032017 0.428513,1.078923 0.159443,1.8754958 0.07972,2.0734618 0.508242,0.5481206 0.817168,1.2470437 0.817168,2.1020646 0,3.0095821 -1.863548,3.6719551 -3.6374015,3.8646331 0.279029,0.235187 0.538132,0.715541 0.538132,1.449635 0,1.04837 -0.0099,1.890803 -0.0099,2.145244 0,0.205311 0.1395175,0.450441 0.5481055,0.37206 3.18962,-1.028437 5.471722,-3.966268 5.471722,-7.4229694 -5e-6,-4.3263664 -3.569648,-7.83421652 -7.9724055,-7.83421652 z"
       fill="#212121"
       id="path1912-5-7-4" />
  </g>
</svg>
